<svg width="12" height="10" viewBox="0 0 12 10" fill="none" xmlns="http://www.w3.org/2000/svg">
<g opacity="0.7">
<path d="M5.78334 1.4579C5.80096 1.41492 5.83097 1.37814 5.86955 1.35226C5.90813 1.32638 5.95354 1.31256 6 1.31256C6.04646 1.31256 6.09187 1.32638 6.13045 1.35226C6.16903 1.37814 6.19905 1.41492 6.21667 1.4579L7.10209 3.58749C7.11866 3.62734 7.14591 3.66184 7.18082 3.6872C7.21574 3.71256 7.25698 3.7278 7.3 3.73124L9.59917 3.9154C9.80709 3.93207 9.89125 4.19165 9.73292 4.32707L7.98125 5.8279C7.94853 5.8559 7.92414 5.89236 7.91076 5.9333C7.89739 5.97424 7.89554 6.01807 7.90542 6.05999L8.44084 8.30374C8.4516 8.34875 8.44878 8.39595 8.43273 8.43936C8.41668 8.48278 8.38813 8.52046 8.35068 8.54766C8.31323 8.57485 8.26856 8.59034 8.22231 8.59217C8.17606 8.59399 8.13031 8.58207 8.09084 8.5579L6.12209 7.35582C6.08532 7.33336 6.04308 7.32148 6 7.32148C5.95692 7.32148 5.91468 7.33336 5.87792 7.35582L3.90917 8.55832C3.86969 8.58248 3.82394 8.59441 3.77769 8.59258C3.73144 8.59076 3.68677 8.57527 3.64932 8.54807C3.61187 8.52088 3.58332 8.48319 3.56727 8.43978C3.55123 8.39636 3.54841 8.34917 3.55917 8.30415L4.09459 6.05999C4.10452 6.01807 4.10269 5.97423 4.08931 5.93328C4.07593 5.89233 4.05152 5.85587 4.01875 5.8279L2.26709 4.32707C2.23181 4.297 2.20626 4.25714 2.19365 4.21254C2.18105 4.16793 2.18197 4.12059 2.19629 4.07651C2.21061 4.03243 2.23769 3.99359 2.27411 3.96491C2.31052 3.93623 2.35462 3.919 2.40084 3.9154L4.7 3.73124C4.74302 3.7278 4.78426 3.71256 4.81918 3.6872C4.8541 3.66184 4.88134 3.62734 4.89792 3.58749L5.78334 1.4579Z" stroke="white" stroke-width="0.5" stroke-linecap="round" stroke-linejoin="round"/>
</g>
</svg>
