<svg width="10" height="10" viewBox="0 0 10 10" fill="none" xmlns="http://www.w3.org/2000/svg">
<path d="M4.78334 1.45792C4.80096 1.41493 4.83097 1.37816 4.86955 1.35227C4.90813 1.32639 4.95354 1.31257 5 1.31257C5.04646 1.31257 5.09187 1.32639 5.13045 1.35227C5.16903 1.37816 5.19905 1.41493 5.21667 1.45792L6.10209 3.5875C6.11866 3.62735 6.14591 3.66185 6.18082 3.68721C6.21574 3.71258 6.25698 3.72781 6.3 3.73125L8.59917 3.91542C8.80709 3.93208 8.89125 4.19167 8.73292 4.32708L6.98125 5.82792C6.94853 5.85591 6.92414 5.89238 6.91076 5.93331C6.89739 5.97425 6.89554 6.01808 6.90542 6.06L7.44084 8.30375C7.4516 8.34877 7.44878 8.39596 7.43273 8.43937C7.41668 8.48279 7.38813 8.52047 7.35068 8.54767C7.31323 8.57487 7.26856 8.59035 7.22231 8.59218C7.17606 8.594 7.13031 8.58208 7.09084 8.55792L5.12209 7.35583C5.08532 7.33337 5.04308 7.32149 5 7.32149C4.95692 7.32149 4.91468 7.33337 4.87792 7.35583L2.90917 8.55833C2.86969 8.5825 2.82394 8.59442 2.77769 8.5926C2.73144 8.59077 2.68677 8.57528 2.64932 8.54809C2.61187 8.52089 2.58332 8.4832 2.56727 8.43979C2.55123 8.39638 2.54841 8.34918 2.55917 8.30417L3.09459 6.06C3.10452 6.01808 3.10269 5.97424 3.08931 5.93329C3.07593 5.89235 3.05152 5.85588 3.01875 5.82792L1.26709 4.32708C1.23181 4.29701 1.20626 4.25715 1.19365 4.21255C1.18105 4.16794 1.18197 4.1206 1.19629 4.07652C1.21061 4.03244 1.23769 3.9936 1.27411 3.96492C1.31052 3.93624 1.35462 3.91901 1.40084 3.91542L3.7 3.73125C3.74302 3.72781 3.78426 3.71258 3.81918 3.68721C3.8541 3.66185 3.88134 3.62735 3.89792 3.5875L4.78334 1.45792Z" fill="#D59646"/>
</svg>
